<svg xmlns="http://www.w3.org/2000/svg" width="20" height="25" viewBox="0 0 20 25">
  <g id="Group_1190" data-name="Group 1190" transform="translate(-214 -821)">
    <path id="Icon_feather-shield" data-name="Icon feather-shield" d="M16,28s10-5,10-12.5V6.75L16,3,6,6.75V15.5C6,23,16,28,16,28Z" transform="translate(208 818)" fill="#c9c9c9"/>
    <path id="Icon_metro-profile" data-name="Icon metro-profile" d="M15.642,9H14.8V7.739L13.07,7.712,13.079,9H7.874l.036-1.286-1.7.027V9.024L5.356,9a.857.857,0,0,0-.857.857v6a.857.857,0,0,0,.857.857H15.642a.857.857,0,0,0,.857-.857v-6A.857.857,0,0,0,15.642,9ZM13.5,8.141h.857V9.855H13.5ZM7.927,11.06a1.116,1.116,0,0,1,.938,1.232,1.116,1.116,0,0,1-.938,1.232,1.116,1.116,0,0,1-.938-1.232,1.116,1.116,0,0,1,.938-1.232ZM6.642,8.141H7.5V9.855H6.642ZM6.07,14.976s.1-.815.333-.969a3.287,3.287,0,0,1,.9-.256s.431.461.615.461.614-.461.614-.461a3.277,3.277,0,0,1,.9.256c.271.181.339.969.339.969H6.07Zm8.714-.406H10.927v-.429h3.857Zm0-.857H10.927v-.429h3.857Zm0-.857H10.927v-.429h3.857Zm0-.857H10.927v-.429h3.857Z" transform="translate(213.501 820.288)" fill="#fff"/>
  </g>
</svg>
