<svg xmlns="http://www.w3.org/2000/svg" width="20" height="25" viewBox="0 0 20 25"><defs><style>.a{fill:#c9c9c9;}.b{fill:#fff;}</style></defs><g transform="translate(-184 -821)"><path class="a" d="M16,28s10-5,10-12.5V6.75L16,3,6,6.75V15.5C6,23,16,28,16,28Z" transform="translate(178 818)"/><path class="b" d="M16.144,13.9a10.079,10.079,0,0,0-2.106-1.409c-.631-.3-.862-.3-1.309.025-.372.269-.612.519-1.04.425A6.206,6.206,0,0,1,9.6,11.393,6.161,6.161,0,0,1,8.053,9.3c-.091-.431.159-.669.425-1.04.322-.447.331-.678.025-1.309A9.88,9.88,0,0,0,7.094,4.848c-.459-.459-.562-.359-.815-.269a4.64,4.64,0,0,0-.747.4,2.252,2.252,0,0,0-.9.947c-.178.384-.384,1.1.665,2.968a16.56,16.56,0,0,0,2.912,3.883h0l0,0,0,0h0A16.624,16.624,0,0,0,12.1,15.691c1.868,1.05,2.584.843,2.968.665a2.214,2.214,0,0,0,.947-.9,4.64,4.64,0,0,0,.4-.747C16.5,14.461,16.606,14.357,16.144,13.9Z" transform="translate(182.31 823.498)"/><path class="b" d="M7.2,2.491l-.565-.565a.341.341,0,0,0-.483,0L2.735,5.341,1.146,3.752a.341.341,0,0,0-.483,0L.1,4.318A.343.343,0,0,0,.1,4.8l2.4,2.4a.341.341,0,0,0,.483,0L7.2,2.976A.344.344,0,0,0,7.2,2.491ZM2.574,4A.226.226,0,0,0,2.9,4L5.862,1.034a.229.229,0,0,0,0-.322L5.217.066a.226.226,0,0,0-.322,0l-2.16,2.16-.79-.791a.226.226,0,0,0-.322,0L.977,2.08a.229.229,0,0,0,0,.322Z" transform="translate(192.353 825.65)"/></g></svg>